<svg xmlns="http://www.w3.org/2000/svg" width="360" height="56.59" viewBox="0 0 360 56.59"><defs><style>.a{fill:#f29100;}.b,.c{fill:#a7a9ae;}.c{fill-rule:evenodd;}</style></defs><g transform="translate(0 0)"><g transform="translate(200.95 0)"><path class="a" d="M284.241,34.7a6.215,6.215,0,0,0,1.587-2.439,22.545,22.545,0,0,0,.2-5.431,25.474,25.474,0,0,0-.837-5.287,37.721,37.721,0,0,0-3.281-7.291,40.376,40.376,0,0,0-6.836-8.346A23.406,23.406,0,0,0,265.209.554c-4.8-1.492-3.845.434-3.441,1.065a10.345,10.345,0,0,1,2.027,5.81,57.953,57.953,0,0,0-.068,5.976c.131,1.738-.018,2.407,2.1,4.792s2.788,3.018,2.368,4.157-2.148-.468-2.552-.914a30.217,30.217,0,0,0-2.265-2.332c-.577-.454-1.209-.535-1.773.75a3.46,3.46,0,0,0,.472,4.013,10.569,10.569,0,0,0,6.744,3.418c2.667.17,6.333.074,9.585,1.524s4.521,3.677,4.133,4.892a1.264,1.264,0,0,1-2.362.315c-.73-1.005-2.4-4.848-6.209-5s-6.744,1.575-7.3,4.066,1.769,4.336,2.316,6.257.966,3.029-.421,5.632-1.383,2.767-1.062,4.483,1.625,2.477,2.427,1.585a8.513,8.513,0,0,1,3.772-2.717c1.942-.671,6.209-3.18,6.932-4.586s.884-4.019,1.34-5.347a5.69,5.69,0,0,1,2.075-3.495l.2-.2Z" transform="translate(-261.173 0)"/><path class="a" d="M296.572,38.605a6.209,6.209,0,0,1-.606-2.846,22.484,22.484,0,0,1,1.765-5.14,25.357,25.357,0,0,1,2.678-4.634,37.623,37.623,0,0,1,5.678-5.63,40.384,40.384,0,0,1,9.376-5.338,23.4,23.4,0,0,1,11.123-1.457c5.012.328,3.435,1.784,2.831,2.227a10.347,10.347,0,0,0-3.976,4.7,58.262,58.262,0,0,1-2.082,5.6c-.745,1.576-.847,2.253-3.678,3.719s-3.686,1.817-3.7,3.031,2.174.334,2.71.063a29.589,29.589,0,0,1,2.952-1.364c.7-.216,1.322-.066,1.386,1.336a3.462,3.462,0,0,1-1.881,3.577,10.569,10.569,0,0,1-7.521.77c-2.552-.8-5.939-2.2-9.5-2.016s-5.538,1.81-5.611,3.082a1.264,1.264,0,0,0,2.092,1.142c1.042-.676,3.982-3.663,7.589-2.439s5.729,3.89,5.355,6.415-3.206,3.414-4.406,5.01-1.987,2.48-1.628,5.407.3,3.078-.615,4.566-2.406,1.73-2.835.609a8.536,8.536,0,0,0-2.546-3.889c-1.573-1.325-4.653-5.2-4.824-6.768s.615-4.07.666-5.472a5.683,5.683,0,0,0-.681-4.006l-.115-.253Z" transform="translate(-269.193 -3.104)"/></g><path class="b" d="M0,42.588c-.125,4.462,2.582,6.342,6.794,6.342,5.415,0,7.445-3.008,7.445-5.791,0-3.759-2.908-4.436-5.439-5.088-1.981-.5-3.735-.928-3.735-2.682,0-2.382,2.632-2.633,3.484-2.633,2.432,0,3.634.928,3.66,3.159H15.22c.151-4.211-2.882-5.716-6.617-5.716-4.237,0-6.669,2.332-6.669,5.565,0,3.409,3.309,4.212,4.888,4.638,2.206.6,4.287,1.1,4.287,3.133,0,2.081-2.281,2.858-3.986,2.858-2.607,0-4.236-1-4.111-3.785Z" transform="translate(0 -6.959)"/><path class="b" d="M20.76,48.631h3.133l3.735-17.9H24.5Z" transform="translate(-4.787 -7.086)"/><path class="b" d="M29.748,48.631H41.906l.552-2.707H33.432l3.159-15.191H33.457Z" transform="translate(-6.859 -7.086)"/><path class="c" d="M48.285,48.631h9.2c5.541,0,6.719-3.785,6.719-5.64a3.568,3.568,0,0,0-2.682-3.76v-.05a4.157,4.157,0,0,0,3.434-4.262c0-1.3-.5-4.187-5.239-4.187H51.994l-3.71,17.9ZM54.6,33.29h4.462c2.557,0,2.757,1.4,2.757,2.131,0,.952-.452,2.807-3.559,2.807H53.574L54.6,33.29Zm-1.479,7.194H57.86c3.208,0,3.309,1.955,3.208,2.808-.276,2.933-3.585,2.782-4.637,2.782H51.945l1.177-5.589Z" transform="translate(-11.134 -7.086)"/><path class="b" d="M71.151,48.631H84.262l.552-2.707H74.785l1.078-5.239h9.25l.526-2.557H76.415l.978-4.688h9.952l.551-2.708H74.861Z" transform="translate(-16.406 -7.086)"/><path class="c" d="M91.61,48.631h3.184l1.529-7.37h3.735c1.679,0,3.359,0,3.359,2.081,0,1.3-.3,2.582-.3,3.91a4.177,4.177,0,0,0,.2,1.379H106.6a2.78,2.78,0,0,1-.325-1.479c-.025-1.229.276-2.482.276-3.71,0-1.479-.4-2.681-1.905-3.233v-.05a4.505,4.505,0,0,0,4.061-4.864c0-4.361-4.112-4.562-5.641-4.562H95.319l-3.71,17.9ZM97.977,33.29h4.387c1.655,0,3.208.376,3.208,2.331,0,2.081-1.5,3.259-4.16,3.259H96.824l1.153-5.589Z" transform="translate(-21.124 -7.086)"/><path class="b" d="M114.867,42.588c-.125,4.462,2.582,6.342,6.793,6.342,5.414,0,7.445-3.008,7.445-5.791,0-3.759-2.908-4.436-5.439-5.088-1.981-.5-3.736-.928-3.736-2.682,0-2.382,2.633-2.633,3.485-2.633,2.431,0,3.634.928,3.66,3.159h3.008c.151-4.211-2.882-5.716-6.617-5.716-4.236,0-6.669,2.332-6.669,5.565,0,3.409,3.309,4.212,4.888,4.638,2.206.6,4.287,1.1,4.287,3.133,0,2.081-2.281,2.858-3.986,2.858-2.607,0-4.236-1-4.111-3.785Z" transform="translate(-26.486 -6.959)"/><path class="b" d="M153.171,36.57c.125-4.111-2.833-6.392-7.069-6.392-4.663,0-9.6,3.409-9.6,10.931,0,4.436,2.832,7.82,7.947,7.82,3.734,0,6.844-2.155,7.871-6.668h-3.134c-.35,1.229-1.4,4.111-4.637,4.111-3.133,0-4.913-2.029-4.913-5.363,0-3.986,2.106-8.273,6.367-8.273,2.556,0,4.036,1.328,4.036,3.835Z" transform="translate(-31.475 -6.959)"/><path class="b" d="M158.75,48.631h3.135l1.678-8.071h8.374l-1.68,8.071h3.133l3.71-17.9h-3.133l-1.479,7.12h-8.374l1.48-7.12H162.46Z" transform="translate(-36.606 -7.086)"/><path class="b" d="M182.434,48.631h3.133l2.708-13.286h.049l5.515,13.286h3.435l3.709-17.9H197.85l-2.732,13.362h-.049l-5.491-13.362h-3.434Z" transform="translate(-42.067 -7.086)"/><path class="b" d="M207.786,41.136a11.062,11.062,0,0,0-.3,2.406c0,3.76,3.083,5.514,6.617,5.514,6.493,0,7.771-4.136,8.4-7.094l2.356-11.231h-3.134l-2.356,11.031c-.778,3.684-2.557,4.586-4.913,4.586-2.181,0-3.885-.8-3.835-3.208a9.317,9.317,0,0,1,.2-1.453l2.307-10.956h-3.133l-2.206,10.4Z" transform="translate(-47.843 -7.086)"/><path class="c" d="M229.964,48.631h3.184l1.528-7.37h3.735c1.679,0,3.359,0,3.359,2.081,0,1.3-.3,2.582-.3,3.91a4.177,4.177,0,0,0,.2,1.379h3.284a2.774,2.774,0,0,1-.327-1.479c-.024-1.229.277-2.482.277-3.71,0-1.479-.4-2.681-1.905-3.233v-.05a4.5,4.5,0,0,0,4.06-4.864c0-4.361-4.111-4.562-5.64-4.562h-7.745l-3.71,17.9Zm6.368-15.341h4.387c1.655,0,3.208.376,3.208,2.331,0,2.081-1.5,3.259-4.161,3.259h-4.587l1.153-5.589Z" transform="translate(-53.027 -7.086)"/><path class="b" d="M344.835,48.477l-2.332-17.9h3.184l1.679,14.139,7.521-14.139h3.334l-9.826,17.9Zm11.327,0,3.71-17.9h13.036l-.552,2.708h-9.952l-.978,4.688h9.225l-.527,2.557h-9.249L359.8,45.769h10.027l-.552,2.708H356.163Zm15.793,0,3.71-17.9h7.745c1.529,0,5.64.2,5.64,4.563A4.506,4.506,0,0,1,384.99,40c1.5.6,1.906,1.8,1.906,3.283,0,1.228-.3,2.481-.277,3.71a2.785,2.785,0,0,0,.326,1.48h-3.284a4.161,4.161,0,0,1-.2-1.379c0-1.329.3-2.607.3-3.91,0-2.081-1.679-2.081-3.359-2.081h-3.735l-1.529,7.37Zm6.367-15.342-1.153,5.59h4.587c2.657,0,4.161-1.177,4.161-3.259,0-1.955-1.554-2.331-3.208-2.331Zm11.352,15.342,3.71-17.9h3.133L393.36,45.769h9.024l-.552,2.708Zm25.694-7.119-1.1-7.621L409.9,41.357Zm-12.911,7.119,10.729-17.9H416.5l3.108,17.9H416.42l-.727-4.738h-7.119l-2.758,4.738Zm36.219-9.425-2.006,9.425h-2.005V46.6a6.537,6.537,0,0,1-4.813,2.306c-5.114,0-7.947-3.384-7.947-7.82,0-7.522,4.938-10.93,9.6-10.93,4.211,0,7.445,1.955,7.47,6.142h-3.133c-.126-2.431-1.806-3.585-4.437-3.585-4.262,0-6.367,4.287-6.367,8.273,0,3.334,1.779,5.364,4.913,5.364,3.083,0,4.762-2.056,5.439-4.913h-4.913l.5-2.381Z" transform="translate(-78.977 -6.953)"/><path class="b" d="M344.835,48.6h3.56l9.826-17.9h-3.334l-7.471,14.139h-.049L345.688,30.7H342.5Z" transform="translate(-78.976 -7.08)"/><path class="b" d="M360.256,48.6h13.111l.552-2.708H363.891l1.078-5.239h9.25l.526-2.557h-9.224l.978-4.688h9.952L377,30.7H363.967Z" transform="translate(-83.07 -7.08)"/><path class="c" d="M380.782,48.6h3.184l1.529-7.37h3.735c1.679,0,3.359,0,3.359,2.081,0,1.3-.3,2.581-.3,3.91a4.161,4.161,0,0,0,.2,1.379h3.284a2.785,2.785,0,0,1-.326-1.48c-.025-1.229.277-2.482.277-3.71,0-1.479-.4-2.682-1.906-3.234v-.05a4.506,4.506,0,0,0,4.061-4.864c0-4.362-4.111-4.563-5.64-4.563h-7.745l-3.71,17.9Zm6.367-15.342h4.387c1.655,0,3.208.376,3.208,2.331,0,2.081-1.5,3.259-4.161,3.259H386l1.153-5.59Z" transform="translate(-87.803 -7.08)"/><path class="b" d="M403.811,48.6h12.158l.552-2.708H407.5L410.654,30.7H407.52Z" transform="translate(-93.113 -7.08)"/><path class="c" d="M433.336,41.485H427.87l4.312-7.621h.05l1.1,7.621ZM420.425,48.6h3.359l2.758-4.738h7.119l.727,4.738h3.184l-3.108-17.9h-3.309L420.425,48.6Z" transform="translate(-96.944 -7.08)"/></g></svg>